{"title":"Freedom Force 2013 BRRip x264 AC3-MiLLENiUM","uid":9772429,"size":1241664001,"categoryP":"video","categoryS":"hd___movies","magnet":"?xt=urn:btih:d77bc148ec575184f4877ef85b81c6666291d843&amp;dn=Freedom+Force+2013+BRRip+x264+AC3-MiLLENiUM&amp;tr=udp%3A%2F%2Ftracker.openbittorrent.com%3A80&amp;tr=udp%3A%2F%2Fopen.demonii.com%3A1337&amp;tr=udp%3A%2F%2Ftracker.coppersurfer.tk%3A6969&amp;tr=udp%3A%2F%2Fexodus.desync.com%3A6969","seeders":1,"leechers":0,"uploader":"lokioddin","files":4,"time":1394930629,"description":"SilverTorrent - Clean And Verified Torrents Download\n\n\n\n[img]http://s11.postimg.org/yb8cmeq8z/download.jpg[/img]\n\n\nFreedom Force 2013 BRRip x264 AC3-MiLLENiUM General\nSource: DL.1080p.BluRay.x264-LeetHD [THANKS]\nIMDb Information: http://www.imdb.com/title/tt3249408/\nSample Included: yes\n\nGeneral\nComplete name: Freedom Force 2013 BRRip x264 AC3-MiLLENiUM.mkv\nFormat: Matroska\nFormat version: Version 2\nFile size: 1.14 GiB\nDuration: 1h 21mn\nOverall bit rate mode: Variable\nOverall bit rate: 1 996 Kbps\nEncoded date: UTC 2014-03-16 10:59:19\nWriting application: mkvmerge v6.8.0 ('Theme for Great Cities') 32bit built on Mar 2 2014 21:27:07\nWriting library: libebml v1.3.0 + libmatroska v1.4.1\n\nVideo\nID: 1\nFormat: AVC\nFormat/Info: Advanced Video Codec\nFormat profile: &lt;a class=&quot;__cf_email__&quot; href=&quot;/cdn-cgi/l/email-protection&quot; data-cfemail=&quot;1e567779765e522a302f&quot;&gt;[email&amp;#160;protected]&lt;/a&gt;&lt;script cf-hash='f9e31' type=&quot;text/javascript&quot;&gt;\n/* &lt;![CDATA[ */!function(){try{var t=&quot;currentScript&quot;in document?document.currentScript:function(){for(var t=document.getElementsByTagName(&quot;script&quot;),e=t.length;e--;)if(t[e].getAttribute(&quot;cf-hash&quot;))return t[e]}();if(t&amp;&amp;t.previousSibling){var e,r,n,i,c=t.previousSibling,a=c.getAttribute(&quot;data-cfemail&quot;);if(a){for(e=&quot;&quot;,r=parseInt(a.substr(0,2),16),n=2;a.length-n;n+=2)i=parseInt(a.substr(n,2),16)^r,e+=String.fromCharCode(i);e=document.createTextNode(e),c.parentNode.replaceChild(e,c)}}}catch(u){}}();/* ]]&gt; */&lt;/script&gt;\nFormat settings, CABAC: Yes\nFormat settings, ReFrames: 3 frames\nCodec ID: V_MPEG4/ISO/AVC\nDuration: 1h 21mn\nBit rate mode: Variable\nBit rate: 1 508 Kbps\nMaximum bit rate: 40.0 Mbps\nWidth: 720 pixels\nHeight: 400 pixels\nDisplay aspect ratio: 16:9\nFrame rate mode: Constant\nFrame rate: 23.976 fps\nColor space: YUV\nChroma subsampling: 4:2:0\nBit depth: 8 bits\nScan type: Progressive\nBits/(Pixel*Frame): 0.218\nStream size: 880 MiB (76%)\nWriting library: x264 core 140 r2377 1ca7bb9\n\nAudio\nID: 2\nFormat: AC-3\nFormat/Info: Audio Coding 3\nMode extension: CM (complete main)\nFormat settings, Endianness: Big\nCodec ID: A_AC3\nDuration: 1h 21mn\nBit rate mode: Constant\nBit rate: 448 Kbps\nChannel(s): 2 channels\nChannel positions: Front: L R\nSampling rate: 48.0 KHz\nBit depth: 16 bits\nCompression mode: Lossy\nStream size: 261 MiB (22%)\nLanguage: English\nDefault: Yes\nForced: No Plot\nA group of kids with special powers and their trusted dog are sent back in time on a mission to restore the famous stories and their place in history as the mad President and Minister of Cultural Affairs are trying to change them. They face many obstacles setting the history straight and not mixing up anything as they go\n &lt;a href=&quot;\nhttp://s30.postimg.org/4dnuxnlgh/vlcsnap_2014_03_16_12h02m40s164.png&quot; rel=&quot;nofollow&quot; target=&quot;_NEW&quot;&gt;\nhttp://s30.postimg.org/4dnuxnlgh/vlcsnap_2014_03_16_12h02m40s164.png&lt;/a&gt;\n &lt;a href=&quot;\nhttp://s30.postimg.org/vpj3yzq75/vlcsnap_2014_03_16_12h02m46s213.png&quot; rel=&quot;nofollow&quot; target=&quot;_NEW&quot;&gt;\nhttp://s30.postimg.org/vpj3yzq75/vlcsnap_2014_03_16_12h02m46s213.png&lt;/a&gt;\n &lt;a href=&quot;\nhttp://s30.postimg.org/9ev8z0swx/vlcsnap_2014_03_16_12h03m33s181.png&quot; rel=&quot;nofollow&quot; target=&quot;_NEW&quot;&gt;\nhttp://s30.postimg.org/9ev8z0swx/vlcsnap_2014_03_16_12h03m33s181.png&lt;/a&gt;\n\n\nSilverTorrent - Clean And Verified Torrents Download\n\n","torrent":{"xt":"urn:btih:d77bc148ec575184f4877ef85b81c6666291d843","amp;dn":"Freedom+Force+2013+BRRip+x264+AC3-MiLLENiUM","amp;tr":["udp%3A%2F%2Ftracker.openbittorrent.com%3A80","udp%3A%2F%2Fopen.demonii.com%3A1337","udp%3A%2F%2Ftracker.coppersurfer.tk%3A6969","udp%3A%2F%2Fexodus.desync.com%3A6969"],"infoHash":"d77bc148ec575184f4877ef85b81c6666291d843","infoHashBuffer":{"type":"Buffer","data":[215,123,193,72,236,87,81,132,244,135,126,248,91,129,198,102,98,145,216,67]},"announce":[],"urlList":[]}}